<svg xmlns="http://www.w3.org/2000/svg" width="42" height="50" viewBox="0 0 42 50">
    <path fill="#EAEFF5" fill-opacity=".2" fill-rule="nonzero" d="M38.145 7.143C40.271 7.143 42 8.84 42 10.927v35.29C42 48.302 40.271 50 38.145 50H12.572c-2.126 0-3.855-1.697-3.855-3.784v-1.772h-4.71C1.798 44.444 0 42.684 0 40.52V3.924C0 1.76 1.798 0 4.008 0H30.86c2.21 0 4.008 1.76 4.008 3.924V7.18c.06-.015.117-.037.182-.037h3.095zM1.585 40.52c0 1.289 1.087 2.337 2.423 2.337H30.86c1.336 0 2.423-1.048 2.423-2.337V3.924c0-1.288-1.087-2.337-2.423-2.337H4.008c-1.336 0-2.423 1.049-2.423 2.337V40.52zm38.83 5.696v-35.29c0-1.21-1.018-2.196-2.27-2.196H35.05c-.065 0-.122-.022-.182-.037V40.52c0 2.164-1.798 3.924-4.008 3.924H10.302v1.772c0 1.212 1.018 2.197 2.27 2.197h25.573c1.252 0 2.27-.985 2.27-2.197zM26.151 10.317a.793.793 0 0 1 0 1.588H8.717a.793.793 0 0 1 0-1.588h17.434zm0 6.35a.793.793 0 0 1 0 1.587H8.717a.793.793 0 0 1 0-1.587h17.434zm0 6.349a.793.793 0 0 1 0 1.587H8.717a.793.793 0 0 1 0-1.587h17.434zm-7.925 6.35a.793.793 0 0 1 0 1.586H8.717a.793.793 0 0 1 0-1.587h9.51z"/>
</svg>
